<mxfile host="Electron" modified="2023-05-22T01:13:20.384Z" agent="Mozilla/5.0 (Windows NT 10.0; Win64; x64) AppleWebKit/537.36 (KHTML, like Gecko) draw.io/21.2.8 Chrome/112.0.5615.165 Electron/24.2.0 Safari/537.36" etag="WCOPxduu36PsY9rq4ePn" version="21.2.8" type="device">
  <diagram name="scratch" id="aKWrZX_7wP8B0U8QuZM7">
    <mxGraphModel dx="1418" dy="868" grid="1" gridSize="10" guides="1" tooltips="1" connect="1" arrows="1" fold="1" page="1" pageScale="1" pageWidth="850" pageHeight="1100" math="0" shadow="0">
      <root>
        <mxCell id="0" />
        <mxCell id="1" parent="0" />
        <mxCell id="WWJ1MKrRZTXP9zr10PcY-2" value="" style="rounded=0;whiteSpace=wrap;html=1;" vertex="1" parent="1">
          <mxGeometry x="120" y="40" width="600" height="400" as="geometry" />
        </mxCell>
        <mxCell id="WWJ1MKrRZTXP9zr10PcY-1" value="" style="rounded=1;whiteSpace=wrap;html=1;fillColor=#808080;" vertex="1" parent="1">
          <mxGeometry x="160" y="80" width="520" height="320" as="geometry" />
        </mxCell>
        <mxCell id="WWJ1MKrRZTXP9zr10PcY-3" value="&lt;b&gt;New&lt;/b&gt;" style="shape=step;perimeter=stepPerimeter;whiteSpace=wrap;html=1;fixedSize=1;fillColor=#CCCCFF;" vertex="1" parent="1">
          <mxGeometry x="180" y="120" width="120" height="40" as="geometry" />
        </mxCell>
        <mxCell id="WWJ1MKrRZTXP9zr10PcY-4" value="&lt;b&gt;Ship&lt;/b&gt;" style="shape=step;perimeter=stepPerimeter;whiteSpace=wrap;html=1;fixedSize=1;fillColor=#E6E6E6;" vertex="1" parent="1">
          <mxGeometry x="180" y="170" width="120" height="40" as="geometry" />
        </mxCell>
        <mxCell id="WWJ1MKrRZTXP9zr10PcY-5" value="&lt;b&gt;Deliver&lt;/b&gt;" style="shape=step;perimeter=stepPerimeter;whiteSpace=wrap;html=1;fixedSize=1;fillColor=#E6E6E6;" vertex="1" parent="1">
          <mxGeometry x="180" y="220" width="120" height="40" as="geometry" />
        </mxCell>
        <mxCell id="WWJ1MKrRZTXP9zr10PcY-6" value="&lt;b&gt;Sign&lt;/b&gt;" style="shape=step;perimeter=stepPerimeter;whiteSpace=wrap;html=1;fixedSize=1;fillColor=#E6E6E6;" vertex="1" parent="1">
          <mxGeometry x="180" y="270" width="120" height="40" as="geometry" />
        </mxCell>
        <mxCell id="WWJ1MKrRZTXP9zr10PcY-7" value="&lt;b&gt;Receive&lt;/b&gt;" style="shape=step;perimeter=stepPerimeter;whiteSpace=wrap;html=1;fixedSize=1;fillColor=#E6E6E6;" vertex="1" parent="1">
          <mxGeometry x="180" y="320" width="120" height="40" as="geometry" />
        </mxCell>
        <mxCell id="WWJ1MKrRZTXP9zr10PcY-11" value="" style="shape=card;whiteSpace=wrap;html=1;fillColor=#CCCCFF;" vertex="1" parent="1">
          <mxGeometry x="330" y="120" width="310" height="240" as="geometry" />
        </mxCell>
        <mxCell id="WWJ1MKrRZTXP9zr10PcY-12" value="" style="rounded=0;whiteSpace=wrap;html=1;" vertex="1" parent="1">
          <mxGeometry x="220" y="480" width="400" height="600" as="geometry" />
        </mxCell>
        <mxCell id="WWJ1MKrRZTXP9zr10PcY-13" value="" style="rounded=1;whiteSpace=wrap;html=1;fillColor=#808080;" vertex="1" parent="1">
          <mxGeometry x="260" y="520" width="320" height="520" as="geometry" />
        </mxCell>
        <mxCell id="WWJ1MKrRZTXP9zr10PcY-14" value="&lt;b&gt;New&lt;/b&gt;" style="shape=parallelogram;perimeter=parallelogramPerimeter;whiteSpace=wrap;html=1;fixedSize=1;fillColor=#CCCCFF;" vertex="1" parent="1">
          <mxGeometry x="285" y="540" width="70" height="40" as="geometry" />
        </mxCell>
        <mxCell id="WWJ1MKrRZTXP9zr10PcY-15" value="&lt;b&gt;Ship&lt;/b&gt;" style="shape=parallelogram;perimeter=parallelogramPerimeter;whiteSpace=wrap;html=1;fixedSize=1;fillColor=#E6E6E6;" vertex="1" parent="1">
          <mxGeometry x="335" y="540" width="70" height="40" as="geometry" />
        </mxCell>
        <mxCell id="WWJ1MKrRZTXP9zr10PcY-16" value="&lt;b&gt;Deliver&lt;/b&gt;" style="shape=parallelogram;perimeter=parallelogramPerimeter;whiteSpace=wrap;html=1;fixedSize=1;fillColor=#E6E6E6;" vertex="1" parent="1">
          <mxGeometry x="385" y="540" width="70" height="40" as="geometry" />
        </mxCell>
        <mxCell id="WWJ1MKrRZTXP9zr10PcY-17" value="&lt;b&gt;Sign&lt;/b&gt;" style="shape=parallelogram;perimeter=parallelogramPerimeter;whiteSpace=wrap;html=1;fixedSize=1;fillColor=#E6E6E6;" vertex="1" parent="1">
          <mxGeometry x="435" y="540" width="70" height="40" as="geometry" />
        </mxCell>
        <mxCell id="WWJ1MKrRZTXP9zr10PcY-18" value="&lt;b&gt;Receive&lt;/b&gt;" style="shape=parallelogram;perimeter=parallelogramPerimeter;whiteSpace=wrap;html=1;fixedSize=1;fillColor=#E6E6E6;" vertex="1" parent="1">
          <mxGeometry x="485" y="540" width="70" height="40" as="geometry" />
        </mxCell>
        <mxCell id="WWJ1MKrRZTXP9zr10PcY-19" value="" style="shape=card;whiteSpace=wrap;html=1;fillColor=#CCCCFF;" vertex="1" parent="1">
          <mxGeometry x="298.75" y="630" width="242.5" height="340" as="geometry" />
        </mxCell>
        <mxCell id="WWJ1MKrRZTXP9zr10PcY-20" value="&lt;h1&gt;Mobile UI&lt;/h1&gt;&lt;p&gt;A simple mobile client will act as the negotiator among the transactions in the chain of custody.&lt;/p&gt;" style="text;html=1;strokeColor=none;fillColor=none;spacing=5;spacingTop=-20;whiteSpace=wrap;overflow=hidden;rounded=0;" vertex="1" parent="1">
          <mxGeometry x="390" y="180" width="190" height="120" as="geometry" />
        </mxCell>
        <mxCell id="WWJ1MKrRZTXP9zr10PcY-21" value="&lt;h1&gt;Mobile UI&lt;/h1&gt;&lt;p&gt;This UI could serve as a gateway for employees at each level of the chain of custody.&amp;nbsp; Signatures and images can be attached to the transaction.&lt;/p&gt;" style="text;html=1;strokeColor=none;fillColor=none;spacing=5;spacingTop=-20;whiteSpace=wrap;overflow=hidden;rounded=0;" vertex="1" parent="1">
          <mxGeometry x="325" y="720" width="190" height="120" as="geometry" />
        </mxCell>
      </root>
    </mxGraphModel>
  </diagram>
</mxfile>
